<svg width="193" height="180" xmlns="http://www.w3.org/2000/svg">
  <path style="-inkscape-stroke:none"
    d="M126.354.184a25.266 25.266 0 00-8.464 1.42 25.328 25.328 0 00-10.713 7.293C102.329 6.146 96.9 4.435 91.324 3.962a38.868 38.868 0 00-20.996 4.157 38.464 38.464 0 00-5.106 3.164 3.32 3.32 0 00-.757-.212 41.997 41.997 0 00-9.393-.348c-9.37.7-18.472 4.478-25.507 10.791-7.45 6.684-12.394 15.975-13.778 25.887a3.32 3.32 0 00.003.045 28.04 28.04 0 00-4.894 3.088C3.844 56.132-.241 65.004.098 74.001c.302 8.036 4.088 15.74 10.266 20.887 5.672 4.727 13.101 6.944 20.44 6.406 5.075 6.524 12.374 11.196 20.5 12.795a3.32 3.32 0 00.11.703 24.857 24.857 0 005.972 9.88c5.537 5.611 13.084 8.048 20.191 9.225a71.214 71.214 0 0017.46.707c1.887 4.865 5.355 8.799 9.212 11.826 4.132 3.242 8.689 5.506 13.044 7.617 6.104 2.96 11.921 5.855 15.358 10.4 1.452 1.92 2.662 4.446 4.351 7.101 1.708 2.684 4.014 5.562 7.567 7.13 2.96 1.307 6.165 1.384 9.071.713 1.853-.427 3.771-1.194 5.45-2.56 1.708-1.387 3.077-3.34 3.533-5.75.294-1.556.156-3.06-.212-4.416-.365-1.347-.947-2.525-1.583-3.56-1.269-2.063-2.702-3.57-3.693-4.939-1.984-2.738-3.241-6.035-3.631-9.405a27.34 27.34 0 003.788-.867c2.661-.826 5.309-2.166 7.488-4.284 3.672-3.568 5.14-8.412 5.645-12.876.716-6.343-.389-12.794-3.038-18.55 1.47.423 2.987.696 4.533.765a19.875 19.875 0 0014.931-5.84c4.08-4.12 6.17-9.927 5.645-15.702-.421-4.635-2.558-8.932-5.823-12.184 2.089-2.806 3.75-5.914 4.417-9.365.893-4.624.357-9.46-1.53-13.774a23.417 23.417 0 00-9.559-10.771c-2.55-1.498-5.383-2.303-8.286-2.751 1.25-2.804 2.091-5.77 2.024-8.867a20.991 20.991 0 00-5.55-13.737 20.952 20.952 0 00-10.467-6.133c-3.042-.73-6.174-.541-9.218.11-3.454-6.622-9.652-11.643-17.01-13.205a25.185 25.185 0 00-5.14-.546z"
    color="#000" fill="#fa899b" />
  <g paint-order="markers stroke fill">
    <path
      d="M76.036 106.23c-4.87 2.762-9.964 4.957-15.552 5.493-2 .045-4.714.728-4.642 3.207.663 3.574 3.669 6.243 6.261 8.634 5.808 4.695 13.447 6.38 20.722 7.106 3.803.159 7.69.524 11.452.042 2.845-.841 2.012-4.332 2.37-6.63.227-3.526 2.084-6.577 3.754-9.57 1.318-3.067-2.427-6.166-5.326-4.838-4.05 1.725-9.026 2.084-12.764-.6-2.003-1.15-3.708-3.686-6.275-2.844z"
      fill="#fe93a4" />
    <path
      d="M103.785 114.427c-3.31.382-4.429 4.156-5.465 6.806-2.453 6.795.252 14.454 5.315 19.308 6.754 7.042 16.451 9.835 24.508 14.992 4.809 2.66 8.282 7.055 10.862 11.815 2.336 3.924 5.503 8.513 10.586 8.585 4.049.193 9.25-2.148 9.268-6.784-.34-4.258-4.093-7.039-5.996-10.591-1.955-3.102-2.732-6.738-3.523-10.238-1.069-2.81-4.52-1.718-6.858-1.963-8.1-.428-16.8-2.886-22.253-9.244-3.462-3.904-3.795-9.876-1.142-14.304 1.204-1.63 1.653-4.472-.523-5.513-3.271-1.164-6.977-.326-10.293-1.516-1.528-.339-2.884-1.374-4.486-1.353z"
      fill="#fabf89" />
    <path
      d="M155.945 107.135c-5.001 4.497-12.656 5.973-18.873 3.32-2.003-1.002-4.644-2.958-6.634-.875-2.362 2.071-4.754 4.139-6.299 6.934-2.36 4.07-5.781 8.062-5.82 12.999.222 6.215 5.8 10.54 11.006 12.91 4.306 1.699 8.932 2.858 13.574 2.978 5.91-.186 12.437.336 17.498-3.318 5.36-3.642 6.586-10.62 6.278-16.66-.202-6.43-2.717-12.724-6.61-17.797-1.128-1.174-2.75-1.376-4.12-.49z"
      fill="#e76e81" />
  </g>
  <path style="-inkscape-stroke:none"
    d="M126.354.184a25.266 25.266 0 00-8.464 1.42 25.328 25.328 0 00-10.713 7.293C102.329 6.146 96.9 4.435 91.324 3.962a38.868 38.868 0 00-20.996 4.157 38.464 38.464 0 00-5.106 3.164 3.32 3.32 0 00-.757-.212 41.997 41.997 0 00-9.392-.348c-9.37.7-18.473 4.478-25.508 10.791-7.45 6.684-12.394 15.975-13.778 25.887a3.32 3.32 0 00.003.045 28.04 28.04 0 00-4.894 3.088C3.844 56.132-.24 65.004.098 74.001c.302 8.036 4.088 15.74 10.266 20.887 5.672 4.727 13.101 6.944 20.44 6.406 5.075 6.524 12.374 11.196 20.5 12.795a3.32 3.32 0 00.11.703 24.857 24.857 0 005.973 9.88c5.536 5.611 13.083 8.048 20.19 9.225a71.214 71.214 0 0017.46.707c1.887 4.865 5.355 8.799 9.212 11.826 4.132 3.242 8.689 5.506 13.044 7.617 6.104 2.96 11.921 5.855 15.358 10.4 1.452 1.92 2.662 4.446 4.351 7.101 1.708 2.684 4.014 5.562 7.567 7.13 2.96 1.307 6.165 1.384 9.071.713 1.853-.427 3.771-1.194 5.45-2.56 1.708-1.387 3.077-3.34 3.533-5.75.294-1.556.157-3.06-.212-4.416-.365-1.347-.947-2.525-1.583-3.56-1.269-2.063-2.702-3.57-3.693-4.939-1.984-2.738-3.241-6.035-3.631-9.405a27.34 27.34 0 003.788-.867c2.661-.826 5.31-2.166 7.488-4.284 3.672-3.568 5.14-8.412 5.645-12.876.716-6.343-.389-12.794-3.038-18.55 1.47.423 2.988.696 4.533.765a19.875 19.875 0 0014.931-5.84c4.08-4.12 6.17-9.927 5.645-15.702-.421-4.635-2.558-8.932-5.822-12.184 2.088-2.806 3.75-5.914 4.416-9.365.893-4.624.357-9.46-1.53-13.774a23.417 23.417 0 00-9.559-10.771c-2.549-1.498-5.383-2.303-8.286-2.751 1.25-2.804 2.091-5.77 2.024-8.867a20.991 20.991 0 00-5.55-13.737 20.952 20.952 0 00-10.467-6.133c-3.042-.73-6.174-.541-9.218.11-3.454-6.622-9.651-11.643-17.01-13.205a25.185 25.185 0 00-5.14-.546zm-.027 6.641c1.274.004 2.546.137 3.785.4 5.983 1.27 11.372 5.889 13.542 11.607a3.32 3.32 0 004.253 1.938 14.456 14.456 0 018.266-.488 14.45 14.45 0 017.143 4.185c2.315 2.504 3.71 5.961 3.785 9.371.074 3.41-1.171 6.926-3.376 9.53a3.32 3.32 0 002.853 5.45 16.917 16.917 0 0110.058 2.221 16.928 16.928 0 016.84 7.707 16.909 16.909 0 011.095 9.853 16.9 16.9 0 01-4.686 8.733 3.32 3.32 0 00.43 5.092c3.082 2.149 5.227 5.842 5.567 9.584.34 3.741-1.104 7.76-3.748 10.43-2.536 2.56-6.317 4.038-9.917 3.876-3.31-.148-6.63-1.7-8.932-4.105 3.854-7.068 4.503-15.666 1.635-23.208-.963-2.532-2.333-4.866-3.97-6.99a11.906 11.906 0 007.23.816 3.32 3.32 0 002.6-3.908 3.32 3.32 0 00-3.908-2.604 5.435 5.435 0 01-3.42-.464c-1.377-.698-2.51-2.212-2.795-3.73a3.32 3.32 0 00-.027-.092c.31-8.548-2.255-17.166-7.413-24.075a37.825 37.825 0 00-14.539-11.733 37.822 37.822 0 00-17.324-3.372 38.724 38.724 0 00-7.61-9.263 38.02 38.02 0 00-1.062-.9 18.822 18.822 0 017.403-4.816 18.777 18.777 0 016.242-1.045zM88.522 10.47c.748.01 1.495.046 2.24.11 6.806.577 13.464 3.433 18.572 7.969 5.108 4.535 8.734 10.814 10.112 17.504a3.32 3.32 0 003.922 2.58 3.32 3.32 0 002.583-3.92 38.282 38.282 0 00-1.474-5.22 31.309 31.309 0 0111.443 2.769 31.273 31.273 0 0111.976 9.665c4.904 6.568 6.973 15.293 5.754 23.426-1.995-1.257-4.134-2.291-6.406-3.003a3.32 3.32 0 00-4.16 2.177 3.32 3.32 0 002.174 4.16c6.025 1.889 11.21 6.775 13.454 12.676 2.244 5.901 1.616 12.995-1.632 18.409-2.044 3.409-5.138 6.193-8.651 7.447-2.362.843-5 1.03-7.457.532a14.09 14.09 0 01-6.656-3.396 3.32 3.32 0 00-4.996.58 18.243 18.243 0 01-6.88 6.031 18.241 18.241 0 01-8.952 1.888c-5.174-.25-10.328-2.95-13.478-7.062a3.32 3.32 0 00-4.73-.556c-1.888 1.533-4.513 2.314-6.932 2.061-2.952-.308-5.886-2.266-7.307-4.873a3.32 3.32 0 00-5.065-.942c-6.286 5.334-15.211 7.673-23.306 6.109-7.038-1.36-13.58-5.637-17.648-11.54a3.32 3.32 0 00-3.212-1.402c-6.02.872-12.52-.965-17.194-4.86-4.674-3.895-7.655-9.957-7.884-16.037-.255-6.785 2.972-13.796 8.29-18.017 5.319-4.22 12.88-5.772 19.43-3.982a3.32 3.32 0 004.078-2.328 3.32 3.32 0 00-2.33-4.078 28.118 28.118 0 00-6.625-.976c-2.206-.062-4.409.156-6.567.593 1.706-7.068 5.588-13.66 10.99-18.508 6.665-5.98 15.763-9.289 24.74-9.187a38.562 38.562 0 00-3.983 5.532 3.32 3.32 0 001.164 4.546 3.32 3.32 0 004.55-1.164 32.339 32.339 0 0112.9-12.16c4.645-2.393 9.92-3.621 15.153-3.553zm8.877 17.4a31.554 31.554 0 00-7.696 1.007 32.078 32.078 0 00-11.628 5.726 26.605 26.605 0 00-4.286-2.696 27.281 27.281 0 00-15.768-2.642 27.286 27.286 0 00-14.525 6.682 3.32 3.32 0 00-.263 4.686 3.32 3.32 0 004.69.263 20.776 20.776 0 0110.975-5.047 20.775 20.775 0 0111.915 1.996c5.495 2.754 9.692 8.292 10.931 14.324-2.894 2.42-5.27 5.454-6.88 8.908a3.32 3.32 0 001.607 4.412 3.32 3.32 0 004.41-1.607c2.195-4.71 6.507-8.534 11.447-10.15 5.128-1.678 11.12-1.022 15.764 1.727a3.32 3.32 0 004.55-1.164 3.32 3.32 0 00-1.168-4.55c-4.766-2.82-10.366-4.007-15.829-3.456a25.51 25.51 0 00-5.382 1.133 25.41 25.41 0 00-2.621 1.023 27.513 27.513 0 00-4.785-9.126 25.51 25.51 0 018.512-4.017c6.649-1.722 14.128-.544 19.927 3.137a3.32 3.32 0 004.58-1.024 3.32 3.32 0 00-1.023-4.583c-5.21-3.307-11.327-5.01-17.454-4.963zm39.893 13.31a13.86 13.86 0 00-11 6c-.223.326-.222.74-.416 1.081l-2.307-4.12a3.32 3.32 0 00-4.518-1.272 3.32 3.32 0 00-1.273 4.519l7.088 12.661a3.32 3.32 0 006.037-2.706c-.707-2.049-.362-4.619.864-6.406 1.234-1.8 3.535-3.056 5.717-3.12a3.32 3.32 0 003.221-3.416 3.32 3.32 0 00-3.413-3.222zM43.953 58.408a25.54 25.54 0 00-3.819.252 25.679 25.679 0 00-13.63 6.434 3.32 3.32 0 00-.216 4.689 3.32 3.32 0 004.693.215 19.17 19.17 0 0110.092-4.764 19.17 19.17 0 0111.024 1.747 19.128 19.128 0 017.388 6.45 19.12 19.12 0 013.171 9.28 3.32 3.32 0 005.624 2.16c6.419-6.213 15.378-9.882 24.31-9.955 11.418-.094 22.918 5.885 29.402 15.283a3.32 3.32 0 004.618.846 3.32 3.32 0 00.846-4.617c-2.5-3.623-5.58-6.793-9.057-9.434a23.837 23.837 0 016.245-3.563 23.948 23.948 0 0113.11-1.109 3.32 3.32 0 003.904-2.607 3.32 3.32 0 00-2.608-3.908 30.385 30.385 0 00-8.491-.471 30.35 30.35 0 00-8.287 1.894 30.423 30.423 0 00-9.716 6.03c-6.126-3.253-13.028-5.04-20.024-4.982-8.78.072-17.335 3.108-24.402 8.266-.734-2.403-1.727-4.718-3.133-6.812a25.661 25.661 0 00-9.976-8.713 25.679 25.679 0 00-11.068-2.611zm33.355 50.118c2.642 2.981 6.324 4.954 10.35 5.375 3.173.332 6.232-.578 9.024-2.044.476.49.975.953 1.485 1.403a21.91 21.91 0 00-3.925 7.955 21.86 21.86 0 00-.635 6.84 64.612 64.612 0 01-14.945-.71c-6.369-1.055-12.49-3.222-16.549-7.335a18.315 18.315 0 01-3.645-5.337c6.685-.182 13.268-2.36 18.84-6.147zm80.506.662c4.58 5.772 6.836 13.492 6.01 20.802-.398 3.526-1.577 6.82-3.672 8.856-1.239 1.204-2.94 2.12-4.83 2.706-1.902.59-4.023.873-6.269 1.021-5.425.357-10.856-.082-15.856-1.666-3.686-1.167-7.063-2.983-9.423-5.549-.875-.951-1.588-1.981-2.061-3.037-.47-1.05-.712-2.155-.686-3.17.03-1.261.488-2.702 1.238-4.168.757-1.478 1.812-3.013 2.908-4.754a68.132 68.132 0 002.707-4.707 3.32 3.32 0 00.078-.177c1.7-1.198 3.243-2.617 4.642-4.174 2.17 1.414 4.503 2.568 7.054 3.085a20.62 20.62 0 0011.007-.785c2.686-.958 5.082-2.448 7.153-4.283zM103.7 116.97c2.937 1.459 6.146 2.356 9.471 2.516a24.626 24.626 0 004.74-.232 35.528 35.528 0 00-1.556 2.706c-1.033 2.019-1.9 4.375-1.965 7.027-.054 2.153.44 4.208 1.266 6.051.823 1.836 1.961 3.435 3.232 4.816 3.413 3.71 7.863 5.978 12.307 7.385 5.124 1.623 10.45 2.193 15.689 2.072a26.574 26.574 0 004.873 12.754c1.323 1.827 2.619 3.22 3.417 4.519.397.645.678 1.265.829 1.822.148.547.171 1.061.099 1.444-.11.578-.546 1.299-1.198 1.83-.68.552-1.644.985-2.754 1.241-1.724.398-3.516.295-4.901-.317-1.692-.747-3.275-2.468-4.645-4.621-1.388-2.182-2.65-4.887-4.655-7.54-4.725-6.247-11.686-9.428-17.758-12.37-4.3-2.085-8.408-4.17-11.842-6.864-3.412-2.677-6.184-6.058-7.406-9.805a15.412 15.412 0 01-.27-8.53 15.415 15.415 0 013.027-5.904z"
    color="#000" fill="#711316" />
</svg>